<?xml version="1.0" encoding="UTF-8" standalone="no"?> <svg xmlns="http://www.w3.org/2000/svg" xmlns:svg="http://www.w3.org/2000/svg" version="1.1" id="svg1" width="388.83984" height="103.92132" viewBox="0 0 388.83984 103.92132"><defs id="defs1"></defs><g id="g1" transform="translate(0,-0.00346616)"><g id="group-R5"><path id="path2" d="m 379.543,358.934 c -45.504,0 -82.523,37.019 -82.523,82.527 0,45.504 37.019,82.523 82.523,82.523 45.504,0 82.527,-37.019 82.527,-82.523 0,-45.508 -37.023,-82.527 -82.527,-82.527 z m 352.934,72.07 c 0.593,11.043 -5.352,22.637 -12.055,31.016 -2.617,3.269 -10.059,7.988 -11.391,11.621 -0.347,0.941 -0.277,1.972 -0.207,2.968 1.18,16.356 3.414,39.082 22.348,44.411 10.484,2.953 22.25,-7.489 32.023,0.418 4.535,3.671 5.926,10.035 5.907,15.613 0,0.758 -0.012,1.527 -0.098,2.285 -5.938,-15.875 -25.414,-6.164 -25.414,-6.164 -27.942,14.07 -43.164,-24.633 -43.176,-24.664 -15.824,-40.266 -54.586,-72.145 -99.074,-74.86 -72.012,2.633 -101.668,42.282 -101.668,42.282 -5.168,5.16 -8.578,10.703 -10.539,16.425 -1.926,5.723 -2.481,11.606 -1.926,17.54 0.516,5.945 2.152,11.886 4.414,17.66 2.289,5.797 5.274,11.414 8.582,16.73 3.309,5.301 6.969,10.297 10.539,14.781 14.094,17.688 33.356,40.11 55.738,43.539 6.665,1.04 13.672,1.043 20.668,0.333 6.985,-0.688 14.004,-2.094 20.735,-3.946 6.707,-1.804 13.183,-4.023 19.047,-6.324 23.715,-9.23 65.414,-36.578 86.82,-8.082 3.559,4.742 5.574,10.477 6.563,16.285 1.324,7.766 -0.879,15.719 1.929,23.274 2.067,5.554 5.75,10.425 9.754,14.726 6.449,6.926 14.156,12.852 22.234,17.766 0.227,0.14 0.915,0.738 1.2,0.718 -22.274,0.446 -36.887,-15.976 -43.512,-35.75 -3.758,-11.214 -3.047,-23.042 -16.496,-27 -9.758,-2.871 -20.684,-0.808 -30.27,1.758 -8.328,2.235 -16.468,5.157 -24.363,8.614 -11.367,4.976 -24.266,9.109 -35.035,15.168 -6.449,3.628 -10.152,9.507 -5.274,16.238 11.79,16.25 12.59,38.672 5.958,57.015 -4.43,12.247 -11.762,23.618 -20.704,33.071 -0.718,0.761 -1.449,1.511 -2.211,2.23 -24.531,29.071 30.524,55.442 30.524,55.442 -17.817,-4.36 -29.945,-10.883 -38.121,-18.137 -8.141,-7.274 -12.403,-15.301 -14.43,-22.789 -6.793,-25.336 4.391,-26.938 16.508,-44.817 3.609,-5.304 5.797,-10.168 7.105,-14.296 8.129,-25.364 5.563,-52.77 -27.851,-54.043 -14.582,0 -28.961,-3.547 -42.246,-8.825 -13.289,-5.265 -25.528,-12.324 -35.973,-19.379 -10.414,-7.062 -19.031,-14.101 -25.047,-19.359 -5.965,-5.285 -9.308,-8.816 -9.308,-8.816 -10.832,-10.985 -19.551,-14.094 -26.571,-12.532 -7.047,1.586 -12.371,7.801 -16.383,15.395 -11.093,21.355 -14.765,47.77 -20.109,71.066 -5.484,23.914 -14.008,48.153 -14.008,72.934 0,9.398 2.051,17.176 4.832,23.324 2.715,6.137 6.164,10.754 8.946,13.778 2.742,3.023 4.828,4.507 4.828,4.507 13.472,11.801 27.742,18.782 30.219,37.985 0.593,4.644 0.554,8.949 -0.036,12.886 -0.543,3.946 -1.574,7.528 -2.945,10.793 -1.359,3.18 -3.019,6.129 -4.793,8.661 -1.812,2.55 -3.762,4.8 -5.637,6.711 -1.886,1.89 -3.722,3.441 -5.371,4.683 -1.574,1.258 -3.008,2.172 -3.965,2.781 -0.992,0.621 -1.558,0.922 -1.558,0.922 l 9.308,-22.91 c 3.172,-7.293 3.383,-13.656 1.95,-19.129 -1.524,-5.476 -4.664,-10.09 -8.2,-13.777 -3.539,-3.668 -7.488,-6.43 -10.554,-8.328 -3.035,-1.864 -5.211,-2.782 -5.211,-2.782 -7.824,-2.425 -13.637,-5.55 -17.828,-8.914 -4.278,-3.324 -7.008,-6.906 -8.743,-10.14 -4.246,-7.942 -2.21,-15.871 -3.019,-24.375 -0.293,-3.125 -0.738,-9.043 -4.481,-10.211 -5.996,-1.863 -13.015,6.254 -16.601,9.707 -11.996,11.543 -33.445,24.492 -20.824,44.254 6.047,9.476 16.773,14.558 22.871,24.07 4.562,7.125 7.914,15.781 5.672,24.289 -2.16,8.195 -9.41,15.125 -17.184,18.246 6.406,-6.367 9.723,-14.828 6.524,-23.597 -3.036,-8.317 -8.461,-12.922 -16.528,-16.098 -7.215,-2.84 -17.097,-7.824 -19.437,-15.922 -1.075,-3.711 0.379,-7.562 -0.285,-11.316 -0.661,-3.762 -2.907,-7.36 -5.645,-9.961 -4.609,-4.383 -10.344,-5.348 -16.449,-5.59 -6.469,-0.258 -13.832,-0.078 -20.063,1.875 -5.843,1.836 -11.199,5.937 -16.183,9.394 -4.969,3.446 -9.887,8.067 -14.289,12.75 -4.391,4.668 -8.231,9.379 -10.985,12.938 -2.73,3.527 -4.406,5.894 -4.406,5.894 8.293,-18.265 15.629,-31.484 22.043,-41.039 4.727,-7.039 9.5,-15.847 17.437,-19.988 8.797,-4.59 20.676,-0.211 30.082,0.031 5.754,0.145 12.098,-1.144 16.954,-4.578 5.421,-3.836 9.863,-10.691 14.14,-15.742 4.074,-4.809 8.305,-9.477 12.489,-14.187 7.277,-8.196 14.46,-16.543 20.371,-25.801 4.765,-7.477 4.668,-17.36 5.015,-25.961 0.188,-4.973 0.25,-10.231 0.239,-15.41 0,-5.235 -0.102,-10.414 -0.29,-15.43 -0.718,-25.957 -1.933,-62.996 -26.484,-79.016 -9.07,-5.918 -18.566,-4.941 -27.289,-1.015 -8.664,3.883 -16.516,10.758 -22.18,16.636 -5.672,5.856 -9.144,10.77 -9.144,10.77 l -11.246,11.898 -11.2,11.883 c -17.851,18.899 -27.035,15.231 -43.667,27.371 -7.676,5.641 -9.68,16.153 -9.93,25.168 -0.184,6.77 1.023,13.571 1.656,20.297 1.652,17.524 6.66,38.473 -5.027,53.719 -2.793,3.641 -7.379,8.574 -12.028,9.926 -17.453,5.05 -7.293,29.902 -12.109,42.429 -5.488,14.266 -19.961,18.055 -33.559,13.438 -0.257,-0.09 -0.679,-0.348 -0.953,-0.348 25.414,0 21.184,-20.262 21.184,-20.262 -5.922,-20.265 2.531,-35.261 2.531,-35.261 3.035,-4.028 7.024,-8.996 7.914,-14.149 0.332,-1.925 -0.336,-6.582 -3.629,-4.945 -0.746,0.371 -1.281,1.055 -1.824,1.688 -15.117,17.648 -41.629,4.035 -60.8554,9.925 -10.8281,3.317 -18.4609,11.887 -23.7461,21.575 2.0117,-3.688 2.2188,-9.852 3.9648,-14.067 2.043,-4.933 4.7149,-9.629 8.043,-13.808 6.5938,-8.297 15.836,-14.422 26.4766,-15.79 10.4221,-1.335 21.1601,2.774 31.8981,1.508 6.395,-0.754 12.926,-2.605 18.024,-6.695 3.793,-3.047 8.601,-9.184 8.129,-14.527 -0.426,-4.778 -1.965,-9.676 -2.598,-14.477 -0.699,-5.281 -1.219,-10.598 -1.047,-15.93 0.184,-5.75 1.192,-11.554 3.527,-16.836 2.204,-4.988 6.278,-8.488 5.801,-14.441 -0.664,-8.262 -6.949,-12.641 -14.457,-14.023 -6.058,-1.118 -10.992,-3.422 -16,-6.997 -6.781,-4.843 -12.574,-10.91 -18.578,-16.644 -11.031,-10.539 -24.2733,-21.121 -39.9335,-13.09 -6.2812,3.242 -12.1055,8.188 -17.0508,13.363 -4.9687,5.188 -9.1328,10.563 -11.9883,14.645 -6.8086,9.738 -19.3632,17.461 -31.4843,11.637 C 6.14063,612.977 1.85938,608.027 0,602.754 c 5.98047,4.914 13.6719,7.539 21.1328,4.539 6.1367,-2.469 9.6602,-8.238 13.3711,-13.363 3.4492,-4.762 6.9961,-9.453 10.5,-14.176 3.3359,-4.496 6.6719,-8.996 10.0078,-13.492 8.8672,-11.953 23.293,-20.977 38.4649,-21.207 10.1874,-0.164 19.1214,3.75 26.4684,9.023 7.325,5.301 13.16,11.973 17.125,17.297 2.614,3.512 4.539,7.828 7.668,10.871 5.492,5.34 12.535,9.774 20.094,11.356 6.531,1.367 12.332,0.289 17.16,-1.758 4.781,-2.028 8.656,-5.02 11.285,-7.524 2.618,-2.492 4.039,-4.48 4.039,-4.48 9.692,-14.66 18.52,-29.871 28.329,-44.453 9.355,-13.91 22.253,-24.719 31.64,-38.149 3.285,-4.691 4.723,-10.199 2.024,-15.511 -6.422,-12.641 -21.766,-13.649 -34.25,-14.481 -21.356,-1.426 -42.379,-8.023 -60.075,-20.195 -5.711,-3.988 -10.582,-8.211 -14.769,-12.391 -14.945,-15.215 -17.602,-42.582 -28.332,-53.008 -3.914,-3.836 -9.059,-5.39 -14.219,-5.816 -7.555,-0.5 -17.4101,1.051 -24.2773,4.344 -4.1523,1.992 -7.4765,5.855 -10.3086,9.375 -5.5117,6.84 -9.9765,14.441 -14.0664,22.199 -3.8047,7.219 -6.8633,14.769 -12.6172,20.723 -7.75,8.015 -17.9961,9.89 -27.8711,4.691 -4.3398,-2.281 -8.1875,-5.473 -11.5859,-8.98 -1.01172,-1.043 -3.05859,-4.625 -4.39453,-5.11 10.24613,3.727 21.49613,3.469 29.70703,-4.379 5.125,-4.894 8.4492,-11.652 10.3164,-18.429 4.0195,-14.594 7.8164,-27.719 18.3711,-39.086 6.9883,-7.528 15.7031,-13.329 25.1914,-17.219 5.1563,-2.117 10.7617,-3.973 16.3401,-4.578 L 100.996,324.23 99.5,309.031 c -1.3828,-14.144 0.895,-48.84 -6.1367,-57.609 -4.3789,-5.445 -11.3008,-7.766 -18.6445,-8.434 -7.2735,-0.652 -14.9883,0.321 -20.8125,1.465 -4.0508,0.797 -7.7579,2.356 -11.9454,2.516 -11.9804,0.449 -22.3945,-7.055 -27.789,-17.438 C 10.2617,222 8.33984,213.402 7.74219,204.977 7.67969,204.109 7.87891,202.828 7.60938,202 c 4.14452,12.688 12.57422,23.969 26.27342,26.66 6.0781,1.195 12.3867,0.778 18.3945,-0.594 6.5235,-1.488 12.2852,-5.117 18.6836,-6.757 5.9414,-1.524 12.668,-0.516 18.5196,0.945 6.875,1.715 13.1755,5.269 17.9495,10.543 2.875,3.176 5.14,6.859 6.871,10.769 3.679,8.329 5.508,17.395 7.137,26.309 4.328,23.711 4.394,49.574 14.671,71.723 11.868,25.566 47.973,51.781 75.875,54.195 10.067,0.824 20.184,-0.727 29.176,-3.199 20.774,-5.723 37.129,-12.539 44.477,-35.227 6.215,-19.379 -4.934,-37.609 -11.223,-55.363 l -7.648,-21.574 -7.614,-21.617 -7.597,-21.547 c -8.539,-21.914 -22.969,-43.739 -46.063,-51.973 -5.297,-1.891 -10.871,-2.992 -16.488,-3.258 -11.684,-0.555 -22.582,3.5 -34.258,0.367 -9.75,-2.621 -17.125,-9.414 -19.406,-19.406 -2.629,-11.504 0.004,-23.09 3.441,-34.109 3.457,-11.082 8.274,-18.953 1.742,-29.8557 -3.824,-6.379 -9.386,-11.9063 -15.378,-16.2774 -0.219,-0.1601 -0.434,-0.3203 -0.657,-0.4726 8.543,1.3007 16.981,4.3476 23.664,9.9531 5.801,4.8594 9.594,10.1606 9.594,18.0746 0.004,12.882 -4.027,24.882 -2.965,38.156 0.625,7.789 1.899,17.316 11.918,16.433 5.418,-0.476 10.371,-2.988 15.887,-3.511 5.113,-0.485 10.269,-0.121 15.25,1.133 9.953,2.507 18.691,8.304 26.793,14.406 6.984,5.258 16.078,16.387 25.937,11.203 6.45,-3.391 8.215,-13.316 9.575,-19.707 1.808,-8.508 4.222,-16.899 5.441,-25.524 1.02,-7.218 1.727,-15.039 -4.383,-20.285 -5.601,-4.812 -13.883,-5.449 -20.941,-5.222 -14.262,0.453 -26.945,4.254 -36.738,-9.102 -3.825,-5.293 -5.711,-11.4999 -6.516,-17.4492 -0.781,-5.9335 -0.504,-11.6328 -0.016,-15.7734 0.492,-4.1914 1.172,-6.9023 1.172,-6.9023 1.36,13.2226 5.953,20.9062 11.711,25.2773 6.328,4.7813 13.981,5.5078 20.07,5.0508 5.067,-0.3984 9.809,-2.0234 14.594,-3.6445 9.707,-3.293 16.793,0 24.781,5.5663 4.141,2.879 8.239,5.859 11.981,9.25 1.742,1.582 7.019,9.344 9.644,8.508 0.692,-0.223 1.168,-0.848 1.582,-1.449 1.707,-2.473 2.977,-5.235 4.758,-7.653 3.93,-5.343 6.766,-9.054 12.676,-12.1677 5.414,-2.8476 10.633,-7.1445 13.824,-12.4179 2.848,-4.7031 4.211,-10.8438 2.282,-16.3164 24.675,15.75 -7.965,44.391 -19.633,56.508 -5.121,5.32 -9.946,9.929 -13.301,16.586 -3.531,7.015 -6.559,14.297 -8.906,21.797 -3.676,11.73 -5.684,24.023 -5.387,36.336 0.297,12.281 2.637,25.632 8.812,36.457 0.102,0.179 0.204,0.359 0.313,0.535 1.676,3.613 3.875,7.472 6.305,11.336 2.504,3.941 5.285,7.918 8.254,11.914 2.968,4.008 6.14,7.941 9.359,11.828 3.195,3.832 6.441,7.539 9.535,11.058 3.109,3.473 6.141,6.723 8.899,9.665 2.777,2.933 5.332,5.539 7.417,7.742 2.129,2.172 3.903,3.879 5.059,5.082 1.234,1.179 1.902,1.828 1.902,1.828 2.227,2.973 4.754,5.238 7.469,6.937 2.707,1.703 5.637,2.848 8.645,3.477 3.008,0.691 6.062,0.922 9.133,0.844 3.046,-0.047 6.078,-0.461 8.949,-1.024 2.89,-0.586 5.644,-1.32 8.113,-2.172 17.449,-5.711 15.523,-13.597 26.508,-30.277 4.957,-7.57 10.242,-14.426 15.676,-20.617 5.371,-6.195 10.957,-11.742 16.429,-16.625 5.461,-4.93 10.907,-9.235 16.051,-13.004 5.188,-3.707 10.117,-6.934 14.52,-9.555 4.468,-2.683 8.492,-4.836 11.828,-6.504 3.308,-1.695 6.062,-2.882 7.914,-3.66 1.887,-0.828 2.906,-1.172 2.906,-1.172 9.762,-2.41 16.293,-5.554 20.668,-8.902 4.379,-3.352 6.531,-6.902 7.523,-10.168 3.145,-10.316 4.2,-23.68 1.321,-34.184 -1.848,-6.746 -5.864,-12.644 -10.34,-17.523 -5.371,-5.859 -12.336,-9.195 -18.246,-14.383 -5.477,-4.801 -8.942,-10.926 -10.68,-17.976 -2.445,-9.914 0.469,-19.8051 6.371,-27.9106 4.039,-5.5391 9.36,-10.707 15.258,-14.2773 -10.512,8.9882 -15.664,21.6797 -9.586,34.7339 1.895,4.063 4.586,7.946 7.66,11.207 5.332,5.657 12.731,9.083 18.774,13.899 6.238,4.973 12.101,10.344 16.922,16.754 4.25,5.66 7.882,12.16 9.5,19.097 0.808,3.485 1.101,7.157 0.336,10.68 -0.75,3.442 -2.821,6.278 -4.071,9.531 -4.039,10.512 -2.023,20.543 8.879,25.2 20.473,8.738 53.77,13.23 76.047,7.675 14.215,-3.543 18.715,-14.566 22.105,-27.73 1.133,-4.359 1.586,-7.449 1.586,-7.449 8.5,-47.52 41.524,-42.274 41.555,-42.27 -3.914,-0.629 -10.973,4.918 -13.664,7.336 -3.816,3.43 -6.699,7.793 -8.391,12.633 -1.808,5.168 -2.125,10.469 -1.457,15.855 1.586,12.805 -2.89,25.079 -8.988,36.149 -4.402,7.988 -10.496,14.973 -18.027,20.144 -13.235,9.082 -29.625,12.012 -45.422,11.661 -11.129,-0.247 -22.328,-1.981 -33.031,-5.051 -1.039,-0.297 -2.082,-0.602 -3.106,-0.953 -15.676,-6.18 -29.039,-6.446 -40.258,-3.395 -11.199,3.055 -20.218,9.438 -27.328,16.613 -12.769,12.86 -27.363,39.43 -32.734,57.004 -2.278,7.391 -2.981,13.707 -2.906,18.836 0.019,8.145 3.101,15.535 5.703,23.106 2.05,5.972 4.222,11.922 6.816,17.687 3.469,7.711 7.789,15.539 14.664,20.735 12.184,9.211 29.953,8.64 44.426,9.296 10.883,0.5 23.012,1.477 34.348,2.61 27.187,2.64 39.652,11.988 61.734,15.289 5.473,0.828 9.949,-0.563 13.387,-2.758 3.508,-2.211 6.074,-5.226 7.722,-7.699 6.856,-10.363 9.539,-20.442 3.043,-31.711 -3.019,-5.238 -7.425,-10.566 -12.425,-14.082 -31.356,-22.047 -3.375,-51.957 -3.375,-51.957 -18.082,22.121 7.183,44.473 24.957,55.906 7.32,4.711 13.363,13.672 16.308,21.797 7.035,19.445 -3.019,24.32 -16.492,33.215 -3.926,2.594 -8.629,8.683 -7.695,13.691 0.343,1.864 1.539,3.461 2.882,4.797 8.418,8.356 18.02,12.25 29.118,15.895 9.871,3.222 19.3,0.875 24.285,-8.625 1.887,-3.602 2.992,-7.594 3.687,-11.586 0.633,-3.637 0.164,-8.117 1.696,-11.45 7.886,-17.125 28.777,-32.375 47.91,-24.351 0.406,0.168 0.816,0.34 1.203,0.547 -11.371,2.277 -24.191,6.332 -31.734,15.765 -4.516,5.653 -5.258,11.36 -4.793,18.563" style="fill:#62c43a;fill-opacity:1;fill-rule:evenodd;stroke:none" transform="matrix(0.13333333,0,0,-0.13333333,0,113.01333)"></path><path id="path3" d="m 379.543,409.461 c -17.672,0 -31.996,14.324 -31.996,32 0,17.672 14.324,31.996 31.996,31.996 17.672,0 31.996,-14.324 31.996,-31.996 0,-17.676 -14.324,-32 -31.996,-32 z m 0,104.129 c -39.773,0 -72.129,-32.356 -72.129,-72.129 0,-39.777 32.356,-72.133 72.129,-72.133 39.777,0 72.129,32.356 72.129,72.133 0,39.773 -32.352,72.129 -72.129,72.129" style="fill:#62c43a;fill-opacity:1;fill-rule:evenodd;stroke:none" transform="matrix(0.13333333,0,0,-0.13333333,0,113.01333)"></path><path style="font-weight:700;font-size:33px;font-family:Arial;fill:#5297d1" d="M 23.702637,0 H 18.51416 l -2.0625,-5.3657227 H 7.0092773 L 5.0595703,0 H 0 L 9.2006836,-23.62207 H 14.244141 Z M 14.920898,-9.3457031 11.666016,-18.111328 8.4755859,-9.3457031 Z M 25.941589,0 v -23.62207 h 4.527832 V 0 Z m 8.705895,0 v -23.62207 h 4.527832 v 8.507812 q 2.094726,-2.384765 4.96289,-2.384765 3.125977,0 5.172364,2.271972 2.046386,2.25586 2.046386,6.4936526 0,4.3828125 -2.094726,6.7514648 -2.078613,2.36865235 -5.05957,2.36865235 -1.466309,0 -2.900391,-0.72509766 Q 39.8843,-1.0795898 38.85305,-2.5136719 V 0 Z m 4.495605,-8.9267578 q 0,2.6586914 0.837891,3.9316406 1.176269,1.8046875 3.125976,1.8046875 1.498536,0 2.545899,-1.2729492 1.063476,-1.2890625 1.063476,-4.0444336 0,-2.9326175 -1.063476,-4.2216795 -1.063477,-1.305176 -2.723145,-1.305176 -1.627441,0 -2.707031,1.272949 -1.07959,1.256836 -1.07959,3.8349612 z m 25.495743,3.4804687 4.511719,0.7573243 q -0.870117,2.4814453 -2.755371,3.78662105 -1.869141,1.2890625 -4.688965,1.2890625 -4.463379,0 -6.606445,-2.91650395 -1.691895,-2.3364257 -1.691895,-5.8974609 0,-4.2539059 2.223633,-6.6547849 2.223633,-2.416992 5.623535,-2.416992 3.818848,0 6.026367,2.529785 2.20752,2.513672 2.11084,7.7182614 H 58.0485 q 0.04834,2.0141602 1.095703,3.1420899 1.047363,1.1118164 2.610352,1.1118164 1.063476,0 1.788574,-0.5800781 0.725098,-0.5800782 1.095703,-1.8691407 z m 0.257813,-4.5761719 q -0.04834,-1.96582 -1.015137,-2.980957 -0.966797,-1.03125 -2.352539,-1.03125 -1.482422,0 -2.449219,1.07959 -0.966797,1.07959 -0.950684,2.932617 z M 77.157555,0 h -4.527832 v -17.112305 h 4.205566 v 2.433106 q 1.07959,-1.724121 1.933594,-2.271973 0.870117,-0.547851 1.96582,-0.547851 1.546875,0 2.980957,0.854003 l -1.401855,3.947754 q -1.144043,-0.741211 -2.126953,-0.741211 -0.950684,0 -1.611329,0.531739 -0.660644,0.515625 -1.047363,1.885254 -0.370605,1.3696285 -0.370605,5.7363278 z m 16.889076,-17.112305 v 3.609375 h -3.09375 v 6.8964847 q 0,2.0947266 0.08057,2.4492187 0.09668,0.3383789 0.402832,0.5639649 0.322266,0.2255859 0.773438,0.2255859 0.628418,0 1.820801,-0.4350586 l 0.386718,3.51269534 q -1.579101,0.67675781 -3.577148,0.67675781 -1.224609,0 -2.20752,-0.40283203 -0.98291,-0.41894531 -1.450195,-1.06347652 -0.451172,-0.6606446 -0.628418,-1.772461 Q 86.40894,-3.6416016 86.40894,-6.0424805 V -13.50293 h -2.078614 v -3.609375 h 2.078614 v -3.399902 l 4.543945,-2.642578 v 6.04248 z m 6.261979,5.220703 -4.108888,-0.741211 q 0.692871,-2.481445 2.384766,-3.673828 1.691892,-1.192382 5.027342,-1.192382 3.0293,0 4.51172,0.725097 1.48242,0.708985 2.07861,1.820801 0.61231,1.095703 0.61231,4.044434 l -0.0483,5.2851558 q 0,2.2558594 0.20947,3.3354493 Q 111.20119,-1.2246094 111.79738,0 h -4.47949 q -0.17725,-0.45117188 -0.43506,-1.3374023 -0.1128,-0.4028321 -0.16114,-0.5317383 -1.16015,1.12792966 -2.48144,1.69189451 -1.32129,0.56396484 -2.81982,0.56396484 -2.642583,0 -4.173344,-1.43408205 -1.514649,-1.434082 -1.514649,-3.6254883 0,-1.4501953 0.692871,-2.578125 0.692871,-1.1440429 1.933594,-1.7402343 1.256836,-0.6123047 3.609378,-1.0634771 3.17431,-0.596191 4.39892,-1.111816 v -0.451172 q 0,-1.305176 -0.64453,-1.853027 -0.64453,-0.563965 -2.4331,-0.563965 -1.2085,0 -1.88526,0.483398 -0.67676,0.467286 -1.0957,1.659668 z m 6.05859,3.6738286 q -0.87011,0.290039 -2.75537,0.6928711 -1.88525,0.402832 -2.46533,0.7895507 -0.88623,0.628418 -0.88623,1.5952149 0,0.9506836 0.70898,1.6435547 0.70899,0.6928711 1.80469,0.6928711 1.22461,0 2.33643,-0.8056641 0.82177,-0.6123047 1.07959,-1.4985352 0.17724,-0.5800781 0.17724,-2.2075195 z" id="text3" transform="matrix(1.3333333,0,0,1.3333333,111.42707,47.596667)" aria-label="Alberta"></path><path style="font-weight:700;font-size:34px;font-family:Arial;fill:#62c43a" d="m 2.5234375,0 v -24.337891 h 4.78125 L 17.265625,-8.0849609 V -24.337891 h 4.56543 V 0 H 16.900391 L 7.0888672,-15.871094 V 0 Z m 33.6663685,-5.6113281 4.648437,0.7802734 q -0.896484,2.5566406 -2.838867,3.9013672 -1.925781,1.328125 -4.831054,1.328125 -4.598633,0 -6.806641,-3.0048828 -1.743164,-2.4072266 -1.743164,-6.0761719 0,-4.3828128 2.291016,-6.8564458 2.291015,-2.490234 5.793945,-2.490234 3.93457,0 6.208984,2.606445 2.274414,2.589844 2.174805,7.9521489 h -11.6875 q 0.0498,2.0751953 1.128906,3.2373047 1.079102,1.1455078 2.689453,1.1455078 1.095703,0 1.842774,-0.5976563 0.74707,-0.5976562 1.128906,-1.9257812 z m 0.265625,-4.7148439 q -0.0498,-2.025391 -1.045898,-3.071289 -0.996094,-1.0625 -2.423829,-1.0625 -1.527343,0 -2.523437,1.112305 -0.996094,1.112304 -0.979492,3.021484 z M 55.47871,0 v -2.6396484 q -0.96289,1.4111328 -2.540039,2.22460934 -1.560547,0.81347656 -3.303711,0.81347656 -1.776367,0 -3.1875,-0.78027344 Q 45.036327,-1.1621094 44.405468,-2.5732422 43.774609,-3.984375 43.774609,-6.4746094 V -17.630859 h 4.665039 v 8.1015621 q 0,3.71875 0.249023,4.5654297 0.265625,0.8300781 0.946289,1.328125 0.680664,0.4814453 1.726563,0.4814453 1.195312,0 2.141601,-0.6474609 0.946289,-0.6640625 1.294922,-1.6269531 0.348633,-0.9794922 0.348633,-4.7646481 v -7.4375 h 4.665039 V 0 Z m 12.604382,0 h -4.665039 v -17.630859 h 4.333007 v 2.506836 q 1.112305,-1.776368 1.992188,-2.340821 0.896484,-0.564453 2.025391,-0.564453 1.59375,0 3.071289,0.879883 l -1.444336,4.067383 q -1.178711,-0.763672 -2.191407,-0.763672 -0.979492,0 -1.660156,0.547851 -0.680664,0.53125 -1.079101,1.942383 -0.381836,1.4111331 -0.381836,5.9101565 z m 6.671921,-9.0644531 q 0,-2.3242189 1.145507,-4.4990239 1.145508,-2.174804 3.237305,-3.320312 2.108398,-1.145508 4.698242,-1.145508 4.000977,0 6.557617,2.606445 2.556641,2.589844 2.556641,6.5576176 0,4.0009766 -2.589844,6.640625 -2.573242,2.6230469 -6.491211,2.6230469 -2.423828,0 -4.631836,-1.09570312 -2.191406,-1.09570308 -3.336914,-3.20410158 -1.145507,-2.125 -1.145507,-5.1630859 z m 4.78125,0.2490234 q 0,2.6230469 1.245117,4.0175781 1.245117,1.3945313 3.071289,1.3945313 1.826172,0 3.054687,-1.3945313 1.245117,-1.3945312 1.245117,-4.0507812 0,-2.5898442 -1.245117,-3.9843752 -1.228515,-1.394531 -3.054687,-1.394531 -1.826172,0 -3.071289,1.394531 -1.245117,1.394531 -1.245117,4.0175783 z m 14.397354,3.7851563 4.68164,-0.7138672 q 0.298828,1.3613281 1.211914,2.0751953 0.913089,0.6972656 2.556639,0.6972656 1.80957,0 2.72266,-0.6640625 0.61426,-0.4648437 0.61426,-1.2451172 0,-0.53125 -0.33204,-0.8798828 -0.34863,-0.3320312 -1.56054,-0.6142578 -5.644533,-1.2451172 -7.155276,-2.2744141 -2.091796,-1.4277339 -2.091796,-3.9677739 0,-2.291015 1.80957,-3.851562 1.80957,-1.560547 5.611332,-1.560547 3.61914,0 5.3789,1.178711 1.75977,1.178711 2.42383,3.486328 l -4.39941,0.813477 q -0.28223,-1.029297 -1.07911,-1.577149 -0.78027,-0.547851 -2.24121,-0.547851 -1.84277,0 -2.639645,0.514648 -0.53125,0.365235 -0.53125,0.946289 0,0.498047 0.464844,0.84668 0.630861,0.464844 4.349611,1.311523 3.73535,0.84668 5.21289,2.0751957 1.46094,1.2451172 1.46094,3.4697266 0,2.4238281 -2.02539,4.1669921 -2.02539,1.7431641 -5.99317,1.7431641 -3.602537,0 -5.710936,-1.4609375 -2.091796,-1.4609375 -2.739257,-3.9677734 z m 34.910983,-7.3876956 -4.59863,0.830078 q -0.23242,-1.377929 -1.0625,-2.075195 -0.81347,-0.697266 -2.125,-0.697266 -1.74316,0 -2.78906,1.211914 -1.0293,1.195313 -1.0293,4.0175786 0,3.1376953 1.0459,4.4326172 1.0625,1.2949219 2.83887,1.2949219 1.32812,0 2.1748,-0.7470703 0.84668,-0.7636719 1.19532,-2.6064453 l 4.58203,0.7802734 q -0.71387,3.1542969 -2.73926,4.7646484 -2.02539,1.6103516 -5.42871,1.6103516 -3.86817,0 -6.17578,-2.4404297 -2.29102,-2.4404297 -2.29102,-6.7568359 0,-4.3662109 2.30762,-6.7900389 2.30762,-2.44043 6.24219,-2.44043 3.2207,0 5.11328,1.394531 1.90918,1.37793 2.73925,4.216797 z m 2.52132,-7.603515 v -4.316407 h 4.66504 v 4.316407 z m 0,20.021484 v -17.630859 h 4.66504 V 0 Z m 18.63051,-5.6113281 4.64844,0.7802734 q -0.89649,2.5566406 -2.83887,3.9013672 -1.92578,1.328125 -4.83105,1.328125 -4.59864,0 -6.80665,-3.0048828 -1.74316,-2.4072266 -1.74316,-6.0761719 0,-4.3828128 2.29102,-6.8564458 2.29101,-2.490234 5.79394,-2.490234 3.93457,0 6.20899,2.606445 2.27441,2.589844 2.1748,7.9521489 h -11.6875 q 0.0498,2.0751953 1.12891,3.2373047 1.0791,1.1455078 2.68945,1.1455078 1.0957,0 1.84277,-0.5976563 0.74707,-0.5976562 1.12891,-1.9257812 z m 0.26562,-4.7148439 q -0.0498,-2.025391 -1.04589,-3.071289 -0.9961,-1.0625 -2.42383,-1.0625 -1.52735,0 -2.52344,1.112305 -0.99609,1.112304 -0.97949,3.021484 z M 173.71797,0 h -4.66504 v -8.9980469 q 0,-2.8554691 -0.29883,-3.6855471 -0.29882,-0.846679 -0.97949,-1.311523 -0.66406,-0.464844 -1.61035,-0.464844 -1.21191,0 -2.1748,0.664063 -0.96289,0.664062 -1.32813,1.759765 -0.34863,1.095703 -0.34863,4.0507814 V 0 h -4.66504 v -17.630859 h 4.33301 v 2.589843 q 2.30761,-2.988281 5.81054,-2.988281 1.54395,0 2.82227,0.564453 1.27832,0.547852 1.92578,1.411133 0.66406,0.863281 0.91309,1.958984 0.26562,1.095704 0.26562,3.137696 z m 19.079,-12.417969 -4.59864,0.830078 q -0.23242,-1.377929 -1.0625,-2.075195 -0.81347,-0.697266 -2.125,-0.697266 -1.74316,0 -2.78906,1.211914 -1.0293,1.195313 -1.0293,4.0175786 0,3.1376953 1.0459,4.4326172 1.0625,1.2949219 2.83887,1.2949219 1.32812,0 2.1748,-0.7470703 0.84668,-0.7636719 1.19532,-2.6064453 l 4.58203,0.7802734 q -0.71387,3.1542969 -2.73926,4.7646484 -2.02539,1.6103516 -5.42871,1.6103516 -3.86816,0 -6.17578,-2.4404297 -2.29102,-2.4404297 -2.29102,-6.7568359 0,-4.3662109 2.30762,-6.7900389 2.30762,-2.44043 6.24219,-2.44043 3.2207,0 5.11328,1.394531 1.90918,1.37793 2.73926,4.216797 z m 12.73169,6.8066409 4.64843,0.7802734 q -0.89648,2.5566406 -2.83886,3.9013672 -1.92578,1.328125 -4.83106,1.328125 -4.59863,0 -6.80664,-3.0048828 -1.74316,-2.4072266 -1.74316,-6.0761719 0,-4.3828128 2.29101,-6.8564458 2.29102,-2.490234 5.79395,-2.490234 3.93457,0 6.20898,2.606445 2.27442,2.589844 2.17481,7.9521489 h -11.6875 q 0.0498,2.0751953 1.1289,3.2373047 1.0791,1.1455078 2.68946,1.1455078 1.0957,0 1.84277,-0.5976563 0.74707,-0.5976562 1.12891,-1.9257812 z m 0.26562,-4.7148439 q -0.0498,-2.025391 -1.0459,-3.071289 -0.99609,-1.0625 -2.42383,-1.0625 -1.52734,0 -2.52343,1.112305 -0.9961,1.112304 -0.9795,3.021484 z" id="text4" transform="matrix(1.3333333,0,0,1.3333333,108.26613,88.931067)" aria-label="Neuroscience"></path></g></g></svg> 